<svg width="763" height="353" viewBox="0 0 763 353" fill="none" xmlns="http://www.w3.org/2000/svg">
<path d="M204.115 124.4C191.648 124.4 182.415 120.867 176.415 113.8C174.282 111.267 172.548 107.9 171.215 103.7C169.882 99.5 169.215 94.4 169.215 88.4C169.215 82.4 170.182 77.0333 172.115 72.3C174.115 67.5 176.815 63.8 180.215 61.2C186.815 56.3333 194.782 53.9 204.115 53.9C206.782 53.9 209.382 54.1333 211.915 54.6C214.448 55 216.348 55.4333 217.615 55.9L219.415 56.6L219.115 57.6C214.582 55.8 209.582 54.9 204.115 54.9C197.048 54.9 191.148 57.2 186.415 61.8C182.815 65.2 180.282 70.2 178.815 76.8C177.948 80.5333 177.515 85.1 177.515 90.5C177.515 95.9 178.282 100.9 179.815 105.5C181.348 110.033 183.082 113.4 185.015 115.6C187.015 117.8 189.415 119.567 192.215 120.9C195.015 122.167 197.248 122.9 198.915 123.1C200.582 123.3 202.582 123.4 204.915 123.4C207.315 123.4 210.015 123.167 213.015 122.7C216.015 122.233 218.282 121.8 219.815 121.4L222.115 120.7L222.415 121.7C217.348 123.5 211.248 124.4 204.115 124.4ZM232.934 54.8C240.667 54.2667 247.5 54 253.434 54C269.9 54 278.134 59.5 278.134 70.5C278.134 75.1667 277 79.3333 274.734 83C272.467 86.6667 268.567 89.1 263.034 90.3L283.034 124H273.734L254.134 90.9H241.234V124H232.934V54.8ZM253.434 55C249.567 55 245.5 55.2333 241.234 55.7V89.9H256.034C265.434 89.5 270.134 83.1 270.134 70.7C270.134 65.6333 268.734 61.7667 265.934 59.1C263.134 56.3667 258.967 55 253.434 55ZM332.792 54V55H301.292V85H330.492V86H301.292V123H334.992V124H292.992V54H332.792ZM342.731 124H341.531L371.431 54L372.531 53.5L397.731 124H389.231L381.431 102H352.231L342.731 124ZM368.331 64.8L352.631 101H381.131L368.331 64.8ZM422.307 124H414.007V55H396.707V54H439.707V55H422.307V124ZM449.73 55V54H467.53V55H462.63V123H467.53V124H449.73V123H454.33V55H449.73ZM482.366 124H481.066V54H484.466L526.066 118.7V54H527.366V124H520.066L482.366 66V124ZM573.744 124.4C561.277 124.4 552.044 120.867 546.044 113.8C543.91 111.267 542.177 107.9 540.844 103.7C539.51 99.5 538.844 94.4 538.844 88.4C538.844 82.4 539.81 77.0333 541.744 72.3C543.744 67.5 546.444 63.8 549.844 61.2C556.444 56.3333 564.41 53.9 573.744 53.9C576.744 53.9 579.677 54.1333 582.544 54.6C585.41 55 587.544 55.4333 588.944 55.9L591.044 56.6L590.744 57.6C585.544 55.8 579.877 54.9 573.744 54.9C566.677 54.9 560.777 57.2 556.044 61.8C552.444 65.2 549.91 70.2 548.444 76.8C547.577 80.5333 547.144 85.1 547.144 90.5C547.144 95.9 547.91 100.9 549.444 105.5C550.977 110.033 552.71 113.4 554.644 115.6C556.644 117.8 559.044 119.567 561.844 120.9C564.644 122.167 566.877 122.9 568.544 123.1C570.21 123.3 572.177 123.4 574.444 123.4C576.777 123.4 579.877 123.133 583.744 122.6V102H571.644V101H596.344V102H592.044V121.7C586.977 123.5 580.877 124.4 573.744 124.4ZM133.512 172.1C136.445 171.967 139.312 171.9 142.112 171.9C144.978 171.9 147.978 172.2 151.112 172.8C154.312 173.4 157.445 174.533 160.512 176.2C163.645 177.8 166.278 179.9 168.412 182.5C170.612 185.033 172.378 188.4 173.712 192.6C175.045 196.8 175.712 201.9 175.712 207.9C175.712 213.9 174.712 219.3 172.712 224.1C170.778 228.833 168.112 232.467 164.712 235C158.112 239.933 150.145 242.4 140.812 242.4C137.545 242.4 134.112 242.267 130.512 242H125.512V172.1H133.512ZM133.812 241.2C135.212 241.333 136.978 241.4 139.112 241.4C141.245 241.4 142.845 241.367 143.912 241.3C144.978 241.233 146.445 240.967 148.312 240.5C150.178 239.967 151.912 239.267 153.512 238.4C155.112 237.533 156.778 236.267 158.512 234.6C160.312 232.867 161.845 230.833 163.112 228.5C165.978 223.033 167.412 215.9 167.412 207.1C167.412 200.833 166.645 195.433 165.112 190.9C163.578 186.3 161.812 182.9 159.812 180.7C157.878 178.5 155.512 176.767 152.712 175.5C149.912 174.167 147.678 173.4 146.012 173.2C144.345 173 142.412 172.9 140.212 172.9C138.012 172.9 135.878 173 133.812 173.2V241.2ZM226.542 172V173H195.042V203H224.242V204H195.042V241H228.742V242H186.742V172H226.542ZM277.281 242H239.281V172H247.581V241H277.281V242ZM287.328 173V172H305.128V173H300.228V241H305.128V242H287.328V241H291.928V173H287.328ZM351.088 242.4C338.621 242.4 329.388 238.867 323.388 231.8C321.254 229.267 319.521 225.9 318.188 221.7C316.854 217.5 316.188 212.4 316.188 206.4C316.188 200.4 317.154 195.033 319.088 190.3C321.088 185.5 323.788 181.8 327.188 179.2C333.788 174.333 341.754 171.9 351.088 171.9C354.088 171.9 357.021 172.133 359.888 172.6C362.754 173 364.888 173.433 366.287 173.9L368.388 174.6L368.088 175.6C362.888 173.8 357.221 172.9 351.088 172.9C344.021 172.9 338.121 175.2 333.388 179.8C329.788 183.2 327.254 188.2 325.788 194.8C324.921 198.533 324.488 203.1 324.488 208.5C324.488 213.9 325.254 218.9 326.788 223.5C328.321 228.033 330.054 231.4 331.988 233.6C333.988 235.8 336.388 237.567 339.188 238.9C341.988 240.167 344.221 240.9 345.888 241.1C347.554 241.3 349.521 241.4 351.788 241.4C354.121 241.4 357.221 241.133 361.088 240.6V220H348.988V219H373.688V220H369.388V239.7C364.321 241.5 358.221 242.4 351.088 242.4ZM389.429 242H381.129V172H389.429V204.2H421.929V172H430.229V242H421.929V205.2H389.429V242ZM463.811 242H455.511V173H438.211V172H481.211V173H463.811V242ZM531.034 172V173H499.534V205H528.734V206H499.534V242H491.234V172H531.034ZM589.627 172H590.927V212C590.927 222.467 588.861 230.167 584.727 235.1C580.594 239.967 575.194 242.4 568.527 242.4C564.327 242.4 560.761 242.033 557.827 241.3C554.894 240.5 552.127 239.067 549.527 237C544.194 232.867 541.527 224.533 541.527 212V172H549.827V211.9C549.827 224.033 551.661 232.133 555.327 236.2C557.194 238.2 559.127 239.567 561.127 240.3C563.194 241.033 565.661 241.4 568.527 241.4C574.927 241.4 580.027 239.067 583.827 234.4C587.694 229.667 589.627 222.167 589.627 211.9V172ZM641.441 242H603.441V172H611.741V241H641.441V242Z" fill="#EFECE6"/>
<path d="M399.512 326.2C400.166 326.2 400.492 326.69 400.492 327.67C400.492 329.513 399.046 330.435 396.152 330.435C395.592 330.435 394.787 330.33 393.737 330.12C394.041 331.567 394.286 333.177 394.472 334.95C394.682 336.7 394.787 338.147 394.787 339.29C394.787 341.81 394.379 343.735 393.562 345.065C392.746 346.395 391.672 347.06 390.342 347.06C388.662 347.06 387.461 345.87 386.737 343.49C386.037 341.11 385.687 337.517 385.687 332.71C385.687 328.23 386.166 323.692 387.122 319.095C388.102 314.475 389.432 310.66 391.112 307.65C392.816 304.617 394.682 303.1 396.712 303.1C397.809 303.1 398.661 303.59 399.267 304.57C399.897 305.55 400.212 306.868 400.212 308.525C400.212 314.008 396.934 319.982 390.377 326.445C390.144 328.732 390.027 330.738 390.027 332.465C390.027 334.868 390.109 337.33 390.272 339.85C390.436 342.393 390.704 343.665 391.077 343.665C391.777 343.665 392.127 342.452 392.127 340.025C392.127 338.205 391.999 336.443 391.742 334.74C391.509 333.037 391.182 331.24 390.762 329.35C390.739 329.047 390.832 328.662 391.042 328.195C391.276 327.728 391.556 327.32 391.882 326.97C392.209 326.62 392.501 326.445 392.757 326.445C393.224 326.445 393.784 326.468 394.437 326.515C394.647 326.538 394.892 326.55 395.172 326.55C396.106 326.55 397.144 326.468 398.287 326.305C398.474 326.282 398.672 326.258 398.882 326.235C399.092 326.212 399.302 326.2 399.512 326.2ZM395.977 306.565C395.557 306.565 395.032 307.277 394.402 308.7C393.796 310.123 393.189 312.013 392.582 314.37C391.976 316.703 391.451 319.177 391.007 321.79C392.874 319.667 394.309 317.462 395.312 315.175C396.316 312.865 396.829 310.707 396.852 308.7C396.852 307.277 396.561 306.565 395.977 306.565ZM401.422 336.175C400.372 336.175 399.509 335.697 398.832 334.74C398.179 333.76 397.852 332.547 397.852 331.1C397.852 329.35 397.969 327.752 398.202 326.305C398.435 324.835 398.82 323.283 399.357 321.65C399.59 320.95 399.917 320.448 400.337 320.145C400.757 319.842 401.422 319.69 402.332 319.69C402.845 319.69 403.195 319.772 403.382 319.935C403.592 320.098 403.697 320.343 403.697 320.67C403.697 320.857 403.569 321.487 403.312 322.56C403.079 323.423 402.892 324.205 402.752 324.905C402.285 327.355 402.052 328.988 402.052 329.805C402.052 330.295 402.11 330.645 402.227 330.855C402.344 331.042 402.53 331.135 402.787 331.135C403.137 331.135 403.569 330.785 404.082 330.085C404.619 329.385 405.179 328.323 405.762 326.9C406.369 325.477 406.952 323.727 407.512 321.65C407.699 320.95 407.979 320.448 408.352 320.145C408.749 319.842 409.332 319.69 410.102 319.69C410.639 319.69 411.012 319.76 411.222 319.9C411.432 320.017 411.537 320.25 411.537 320.6C411.537 321.183 411.245 322.782 410.662 325.395C410.009 328.382 409.682 330.225 409.682 330.925C409.682 331.368 409.775 331.718 409.962 331.975C410.149 332.208 410.394 332.325 410.697 332.325C411.164 332.325 411.712 332.045 412.342 331.485C412.995 330.902 413.859 329.968 414.932 328.685C415.212 328.358 415.527 328.195 415.877 328.195C416.18 328.195 416.414 328.335 416.577 328.615C416.764 328.895 416.857 329.28 416.857 329.77C416.857 330.703 416.635 331.427 416.192 331.94C415.189 333.177 414.104 334.192 412.937 334.985C411.794 335.778 410.487 336.175 409.017 336.175C407.897 336.175 407.069 335.743 406.532 334.88C406.019 334.017 405.762 332.803 405.762 331.24C405.365 332.827 404.77 334.052 403.977 334.915C403.184 335.755 402.332 336.175 401.422 336.175ZM427.284 328.195C427.587 328.195 427.821 328.335 427.984 328.615C428.171 328.895 428.264 329.28 428.264 329.77C428.264 330.703 428.042 331.427 427.599 331.94C426.596 333.177 425.499 334.192 424.309 334.985C423.142 335.778 421.812 336.175 420.319 336.175C418.266 336.175 416.737 335.242 415.734 333.375C414.754 331.508 414.264 329.093 414.264 326.13C414.264 323.283 414.626 320.04 415.349 316.4C416.096 312.76 417.181 309.633 418.604 307.02C420.051 304.407 421.766 303.1 423.749 303.1C424.869 303.1 425.744 303.625 426.374 304.675C427.027 305.702 427.354 307.183 427.354 309.12C427.354 311.897 426.584 315.117 425.044 318.78C423.504 322.443 421.416 326.072 418.779 329.665C418.942 330.622 419.211 331.31 419.584 331.73C419.957 332.127 420.447 332.325 421.054 332.325C422.011 332.325 422.851 332.057 423.574 331.52C424.297 330.96 425.219 330.015 426.339 328.685C426.619 328.358 426.934 328.195 427.284 328.195ZM422.979 306.565C422.442 306.565 421.836 307.533 421.159 309.47C420.482 311.407 419.887 313.81 419.374 316.68C418.861 319.55 418.581 322.303 418.534 324.94C420.191 322.21 421.509 319.48 422.489 316.75C423.469 313.997 423.959 311.488 423.959 309.225C423.959 307.452 423.632 306.565 422.979 306.565ZM435.55 331.065C435.807 330.832 436.064 330.715 436.32 330.715C436.6 330.715 436.822 330.878 436.985 331.205C437.172 331.508 437.265 331.882 437.265 332.325C437.265 333.305 436.915 334.087 436.215 334.67C435.002 335.673 433.625 336.175 432.085 336.175C429.869 336.175 428.247 335.253 427.22 333.41C426.194 331.543 425.68 329.117 425.68 326.13C425.68 323.283 426.042 320.04 426.765 316.4C427.512 312.76 428.597 309.633 430.02 307.02C431.467 304.407 433.182 303.1 435.165 303.1C436.285 303.1 437.16 303.625 437.79 304.675C438.444 305.702 438.77 307.183 438.77 309.12C438.77 311.897 438 315.117 436.46 318.78C434.944 322.443 432.867 326.06 430.23 329.63C430.394 330.587 430.685 331.275 431.105 331.695C431.525 332.115 432.097 332.325 432.82 332.325C433.217 332.325 433.66 332.208 434.15 331.975C434.664 331.742 435.13 331.438 435.55 331.065ZM434.395 306.565C433.859 306.565 433.252 307.533 432.575 309.47C431.899 311.407 431.304 313.81 430.79 316.68C430.277 319.55 429.997 322.303 429.95 324.94C431.607 322.21 432.925 319.48 433.905 316.75C434.885 313.997 435.375 311.488 435.375 309.225C435.375 307.452 435.049 306.565 434.395 306.565ZM454.094 336.945C452.88 336.945 451.947 336.665 451.294 336.105C450.664 335.545 450.349 334.915 450.349 334.215C450.349 333.608 450.57 333.083 451.014 332.64C451.457 332.197 452.11 331.975 452.974 331.975C453.277 331.975 453.627 332.01 454.024 332.08C454.444 332.127 454.759 332.162 454.969 332.185C454.945 331.578 454.805 331.007 454.549 330.47C454.315 329.933 454.012 329.42 453.639 328.93C453.265 328.417 452.915 327.973 452.589 327.6C451.865 328.977 451.142 330.12 450.419 331.03C449.719 331.94 448.949 332.803 448.109 333.62C447.689 334.04 447.245 334.25 446.779 334.25C446.405 334.25 446.102 334.122 445.869 333.865C445.635 333.585 445.519 333.247 445.519 332.85C445.519 332.383 445.682 331.952 446.009 331.555L446.464 330.995C447.747 329.408 448.715 328.102 449.369 327.075C449.765 326.398 450.232 325.5 450.769 324.38C451.305 323.237 451.83 322.058 452.344 320.845C452.787 319.818 453.709 319.305 455.109 319.305C455.762 319.305 456.217 319.363 456.474 319.48C456.73 319.597 456.859 319.783 456.859 320.04C456.859 320.18 456.812 320.402 456.719 320.705C456.625 321.008 456.497 321.312 456.334 321.615C455.914 322.455 455.704 323.167 455.704 323.75C455.704 324.1 455.82 324.485 456.054 324.905C456.31 325.325 456.695 325.85 457.209 326.48C457.955 327.46 458.515 328.3 458.889 329C459.285 329.677 459.484 330.423 459.484 331.24C459.484 331.473 459.46 331.8 459.414 332.22C460.557 331.777 461.899 330.598 463.439 328.685C463.719 328.358 464.034 328.195 464.384 328.195C464.687 328.195 464.92 328.335 465.084 328.615C465.27 328.895 465.364 329.28 465.364 329.77C465.364 330.657 465.142 331.38 464.699 331.94C463.532 333.387 462.412 334.378 461.339 334.915C460.289 335.428 458.982 335.708 457.419 335.755C456.485 336.548 455.377 336.945 454.094 336.945ZM478.13 328.195C478.433 328.195 478.667 328.335 478.83 328.615C479.017 328.895 479.11 329.28 479.11 329.77C479.11 330.703 478.888 331.427 478.445 331.94C477.442 333.177 476.345 334.192 475.155 334.985C473.965 335.778 472.6 336.175 471.06 336.175C466.3 336.175 463.92 332.827 463.92 326.13C463.92 325.103 463.955 324.065 464.025 323.015H462.66C461.96 323.015 461.482 322.887 461.225 322.63C460.992 322.373 460.875 321.965 460.875 321.405C460.875 320.098 461.4 319.445 462.45 319.445H464.445C464.842 316.878 465.448 314.533 466.265 312.41C467.082 310.287 468.062 308.595 469.205 307.335C470.372 306.075 471.62 305.445 472.95 305.445C473.93 305.445 474.7 305.877 475.26 306.74C475.82 307.603 476.1 308.688 476.1 309.995C476.1 313.612 474.583 316.762 471.55 319.445H475.47C475.843 319.445 476.112 319.527 476.275 319.69C476.438 319.853 476.52 320.157 476.52 320.6C476.52 322.21 475.202 323.015 472.565 323.015H468.295C468.248 324.182 468.225 325.092 468.225 325.745C468.225 328.172 468.505 329.875 469.065 330.855C469.648 331.835 470.558 332.325 471.795 332.325C472.798 332.325 473.685 332.022 474.455 331.415C475.225 330.808 476.135 329.898 477.185 328.685C477.465 328.358 477.78 328.195 478.13 328.195ZM472.005 308.805C471.655 308.805 471.258 309.248 470.815 310.135C470.395 310.998 469.987 312.212 469.59 313.775C469.217 315.315 468.902 317.03 468.645 318.92C470.022 317.73 471.048 316.4 471.725 314.93C472.425 313.437 472.775 312.083 472.775 310.87C472.775 309.493 472.518 308.805 472.005 308.805ZM480.565 336.175C479.119 336.175 477.964 335.65 477.1 334.6C476.237 333.55 475.805 332.173 475.805 330.47C475.805 328.603 476.237 326.842 477.1 325.185C477.964 323.505 479.107 322.163 480.53 321.16C481.977 320.133 483.505 319.62 485.115 319.62C485.629 319.62 485.967 319.725 486.13 319.935C486.317 320.122 486.469 320.472 486.585 320.985C487.075 320.892 487.589 320.845 488.125 320.845C489.269 320.845 489.84 321.253 489.84 322.07C489.84 322.56 489.665 323.727 489.315 325.57C488.779 328.253 488.51 330.12 488.51 331.17C488.51 331.52 488.592 331.8 488.755 332.01C488.942 332.22 489.175 332.325 489.455 332.325C489.899 332.325 490.435 332.045 491.065 331.485C491.695 330.902 492.547 329.968 493.62 328.685C493.9 328.358 494.215 328.195 494.565 328.195C494.869 328.195 495.102 328.335 495.265 328.615C495.452 328.895 495.545 329.28 495.545 329.77C495.545 330.703 495.324 331.427 494.88 331.94C493.924 333.13 492.909 334.133 491.835 334.95C490.762 335.767 489.724 336.175 488.72 336.175C487.95 336.175 487.239 335.918 486.585 335.405C485.955 334.868 485.477 334.145 485.15 333.235C483.937 335.195 482.409 336.175 480.565 336.175ZM481.825 332.64C482.339 332.64 482.829 332.337 483.295 331.73C483.762 331.123 484.1 330.318 484.31 329.315L485.605 322.875C484.625 322.898 483.715 323.272 482.875 323.995C482.059 324.695 481.405 325.628 480.915 326.795C480.425 327.962 480.18 329.198 480.18 330.505C480.18 331.228 480.32 331.765 480.6 332.115C480.904 332.465 481.312 332.64 481.825 332.64ZM499.386 336.175C497.099 336.175 495.314 335.533 494.031 334.25C492.771 332.943 492.141 331.228 492.141 329.105C492.141 327.215 492.514 325.558 493.261 324.135C494.007 322.712 494.976 321.615 496.166 320.845C497.356 320.075 498.604 319.69 499.911 319.69C501.194 319.69 502.186 320.075 502.886 320.845C503.609 321.592 503.971 322.56 503.971 323.75C503.971 324.73 503.749 325.558 503.306 326.235C502.886 326.912 502.326 327.25 501.626 327.25C501.182 327.25 500.821 327.145 500.541 326.935C500.284 326.725 500.156 326.433 500.156 326.06C500.156 325.897 500.179 325.71 500.226 325.5C500.272 325.29 500.307 325.138 500.331 325.045C500.447 324.695 500.506 324.368 500.506 324.065C500.506 323.762 500.424 323.528 500.261 323.365C500.121 323.202 499.911 323.12 499.631 323.12C499.094 323.12 498.592 323.365 498.126 323.855C497.659 324.322 497.286 324.963 497.006 325.78C496.726 326.597 496.586 327.495 496.586 328.475C496.586 331.182 497.764 332.535 500.121 332.535C501.077 332.535 502.104 332.22 503.201 331.59C504.321 330.937 505.417 329.968 506.491 328.685C506.771 328.358 507.086 328.195 507.436 328.195C507.739 328.195 507.972 328.335 508.136 328.615C508.322 328.895 508.416 329.28 508.416 329.77C508.416 330.657 508.194 331.38 507.751 331.94C506.654 333.293 505.336 334.343 503.796 335.09C502.279 335.813 500.809 336.175 499.386 336.175ZM520.462 332.36C521.418 332.547 521.897 333.072 521.897 333.935C521.897 334.518 521.628 335.043 521.092 335.51C520.578 335.953 519.832 336.175 518.852 336.175C517.172 336.175 515.795 335.662 514.722 334.635C513.672 333.585 513.147 332.22 513.147 330.54C513.147 329.63 513.613 328.977 514.547 328.58C515.573 328.137 516.308 327.67 516.752 327.18C517.195 326.667 517.417 326.048 517.417 325.325C517.417 324.905 517.323 324.59 517.137 324.38C516.973 324.17 516.763 324.065 516.507 324.065C515.877 324.065 515.177 324.52 514.407 325.43C513.66 326.34 512.96 327.518 512.307 328.965C511.653 330.388 511.14 331.858 510.767 333.375C510.51 334.472 510.207 335.218 509.857 335.615C509.53 335.988 509.005 336.175 508.282 336.175C507.558 336.175 507.022 335.918 506.672 335.405C506.345 334.868 506.123 334.052 506.007 332.955C505.89 331.858 505.832 330.248 505.832 328.125C505.832 324.532 506.193 320.787 506.917 316.89C507.663 312.993 508.748 309.727 510.172 307.09C511.618 304.43 513.345 303.1 515.352 303.1C516.425 303.1 517.288 303.567 517.942 304.5C518.618 305.41 518.957 306.6 518.957 308.07C518.957 310.427 518.268 312.877 516.892 315.42C515.515 317.94 513.275 320.892 510.172 324.275C510.102 325.488 510.067 326.737 510.067 328.02C511.187 325.103 512.47 322.992 513.917 321.685C515.363 320.355 516.717 319.69 517.977 319.69C519.143 319.69 520.077 320.087 520.777 320.88C521.5 321.673 521.862 322.653 521.862 323.82C521.862 325.103 521.535 326.282 520.882 327.355C520.228 328.428 519.108 329.385 517.522 330.225C517.662 330.925 517.942 331.415 518.362 331.695C518.805 331.952 519.505 332.173 520.462 332.36ZM514.617 306.565C514.197 306.565 513.73 307.172 513.217 308.385C512.703 309.575 512.202 311.197 511.712 313.25C511.245 315.28 510.86 317.497 510.557 319.9C512.003 318.197 513.193 316.342 514.127 314.335C515.083 312.328 515.562 310.508 515.562 308.875C515.562 308.128 515.48 307.557 515.317 307.16C515.153 306.763 514.92 306.565 514.617 306.565Z" fill="#EFECE6"/>
<path d="M223.761 294.96C220.481 294.96 218.201 294.32 216.921 293.04C215.641 291.76 215.001 290.2 215.001 288.36C215.001 286.04 215.601 283.56 216.801 280.92C218.081 278.28 219.281 276.04 220.401 274.2C221.681 272.28 223.401 270.28 225.561 268.2C227.721 266.12 230.081 264.36 232.641 262.92C235.201 261.48 237.681 260.76 240.081 260.76C242.161 260.76 243.601 261.28 244.401 262.32C245.201 263.28 245.601 264.44 245.601 265.8C245.601 268.28 244.841 270.32 243.321 271.92C241.881 273.52 240.081 274.84 237.921 275.88C235.761 276.84 233.681 277.64 231.681 278.28C230.481 278.6 229.081 278.92 227.481 279.24C225.881 279.56 224.361 279.72 222.921 279.72C222.361 281.16 221.921 282.56 221.601 283.92C221.281 285.28 221.121 286.52 221.121 287.64C221.121 289 221.441 290.12 222.081 291C222.801 291.88 223.961 292.32 225.561 292.32C226.201 292.32 226.961 292.24 227.841 292.08C228.721 291.92 229.681 291.68 230.721 291.36C233.121 290.56 235.481 289.28 237.801 287.52C240.121 285.76 242.241 283.88 244.161 281.88C246.161 279.8 247.681 278.08 248.721 276.72C248.961 276.96 249.081 277.24 249.081 277.56C249.081 277.96 248.801 278.6 248.241 279.48C246.641 281.72 244.561 284.04 242.001 286.44C239.441 288.84 236.601 290.88 233.481 292.56C230.361 294.16 227.121 294.96 223.761 294.96ZM223.881 277.32C224.921 277.4 226.081 277.4 227.361 277.32C228.721 277.16 230.041 276.88 231.321 276.48C234.601 275.52 236.961 274 238.401 271.92C239.921 269.76 240.681 267.84 240.681 266.16C240.681 265.2 240.481 264.4 240.081 263.76C239.681 263.12 239.041 262.8 238.161 262.8C235.841 262.8 233.761 263.68 231.921 265.44C230.081 267.12 228.481 269.08 227.121 271.32C225.761 273.56 224.681 275.56 223.881 277.32ZM266.004 294.72C265.204 294.72 264.404 294.52 263.604 294.12C262.564 293.64 261.564 292.68 260.604 291.24C259.644 289.8 258.844 288.28 258.204 286.68C257.564 285.08 257.124 283.76 256.884 282.72C254.644 284.64 252.724 286.52 251.124 288.36C249.524 290.2 247.684 292.16 245.604 294.24C245.364 294.48 244.764 294.6 243.804 294.6C243.244 294.6 242.684 294.52 242.124 294.36C241.564 294.2 241.284 293.96 241.284 293.64C241.284 293.24 241.524 292.88 242.004 292.56C244.804 290.32 247.244 288.4 249.324 286.8C251.404 285.12 253.804 283.16 256.524 280.92C256.444 280.52 256.284 279.64 256.044 278.28C255.804 276.92 255.524 275.44 255.204 273.84C254.964 272.24 254.764 270.84 254.604 269.64C254.444 268.36 254.364 267.6 254.364 267.36C254.524 266.4 255.044 265.56 255.924 264.84C256.804 264.04 257.804 263.44 258.924 263.04C260.124 262.56 261.164 262.32 262.044 262.32C263.164 262.32 263.724 262.6 263.724 263.16C263.724 263.48 263.404 263.64 262.764 263.64C261.724 263.64 261.084 264.08 260.844 264.96C260.604 265.84 260.444 266.56 260.364 267.12C260.284 267.6 260.204 268.08 260.124 268.56C260.124 269.04 260.124 269.52 260.124 270C260.124 271.2 260.204 272.4 260.364 273.6C260.524 274.8 260.724 275.96 260.964 277.08C261.364 276.76 262.164 276.12 263.364 275.16C264.564 274.2 265.964 273.08 267.564 271.8C269.164 270.52 270.764 269.24 272.364 267.96C273.964 266.68 275.324 265.6 276.444 264.72C277.564 263.84 278.244 263.32 278.484 263.16C279.444 262.52 280.604 262.24 281.964 262.32C283.404 262.32 284.644 262.32 285.684 262.32C285.924 262.32 286.044 262.56 286.044 263.04C286.044 263.76 285.884 264.12 285.564 264.12C284.444 264.2 283.284 264.48 282.084 264.96C280.964 265.36 280.084 265.72 279.444 266.04C277.604 266.84 275.564 268.04 273.324 269.64C271.164 271.16 269.044 272.76 266.964 274.44C264.884 276.04 263.044 277.52 261.444 278.88C261.604 279.6 261.924 280.84 262.404 282.6C262.964 284.36 263.644 286.04 264.444 287.64C265.404 289.72 266.564 290.76 267.924 290.76C269.044 290.76 270.124 290.12 271.164 288.84C272.204 287.56 273.084 286.12 273.804 284.52C274.604 282.84 275.124 281.44 275.364 280.32C275.524 279.84 275.724 279.6 275.964 279.6C276.524 279.6 276.724 280.04 276.564 280.92C276.164 282.76 275.484 284.76 274.524 286.92C273.564 289.08 272.364 290.92 270.924 292.44C269.484 293.96 267.844 294.72 266.004 294.72ZM244.624 336C241.584 336 238.664 335.28 235.864 333.84C232.984 332.48 230.864 330.36 229.504 327.48C229.024 326.44 228.704 325.32 228.544 324.12C228.384 323 228.304 321.88 228.304 320.76V319.44C228.304 318.8 228.384 318.2 228.544 317.64C228.704 317.16 229.104 316.92 229.744 316.92C229.984 316.92 230.104 317 230.104 317.16C230.104 317.64 230.064 318.12 229.984 318.6C229.824 319.08 229.744 319.6 229.744 320.16C229.744 323.84 230.944 326.64 233.344 328.56C235.664 330.48 238.584 331.44 242.104 331.44C243.544 331.44 245.024 331.28 246.544 330.96C248.064 330.64 249.504 330.2 250.864 329.64C255.904 327.48 260.304 324.44 264.064 320.52C267.824 316.6 271.104 312.16 273.904 307.2C276.704 302.24 279.184 297.16 281.344 291.96C283.664 286.28 285.864 280.68 287.944 275.16C290.104 269.56 292.504 264.08 295.144 258.72C297.624 253.76 300.264 250.04 303.064 247.56C305.864 245.08 308.664 243.84 311.464 243.84C312.184 243.84 312.864 244.04 313.504 244.44C314.224 244.84 314.544 245.48 314.464 246.36L314.224 249.72C314.224 249.96 314.064 250.08 313.744 250.08C313.744 250.08 313.704 250.08 313.624 250.08C313.624 250.08 313.624 250.04 313.624 249.96C313.624 249 313.264 248.36 312.544 248.04C311.904 247.64 311.264 247.44 310.624 247.44C307.904 247.44 305.464 248.4 303.304 250.32C301.224 252.16 299.384 254.56 297.784 257.52C296.184 260.48 294.824 263.6 293.704 266.88C292.584 270.08 291.664 273.04 290.944 275.76C291.504 275.28 292.504 274.28 293.944 272.76C295.464 271.24 297.224 269.6 299.224 267.84C301.224 266.08 303.264 264.56 305.344 263.28C307.424 262 309.344 261.36 311.104 261.36C312.144 261.36 312.744 261.84 312.904 262.8C313.144 263.68 313.184 264.52 313.024 265.32C312.624 268.28 311.624 271.48 310.024 274.92C308.424 278.36 306.344 281.64 303.784 284.76C301.304 287.8 298.504 290.28 295.384 292.2C292.344 294.12 289.144 295.08 285.784 295.08C285.384 295.08 284.824 295.04 284.104 294.96C283.464 294.96 283.064 294.88 282.904 294.72C281.224 299.76 279.064 304.92 276.424 310.2C273.784 315.48 270.624 320.24 266.944 324.48C263.184 328.8 258.744 332.04 253.624 334.2C250.904 335.4 247.904 336 244.624 336ZM287.584 293.04C288.784 293.04 290.144 292.56 291.664 291.6C293.264 290.56 294.464 289.64 295.264 288.84C296.224 287.96 297.344 286.6 298.624 284.76C299.984 282.84 301.304 280.76 302.584 278.52C303.944 276.28 305.064 274.12 305.944 272.04C306.824 269.96 307.264 268.28 307.264 267C307.264 266.6 307.184 266.24 307.024 265.92C306.864 265.6 306.584 265.44 306.184 265.44C305.464 265.44 304.504 265.88 303.304 266.76C302.104 267.64 300.824 268.72 299.464 270C298.184 271.2 296.984 272.4 295.864 273.6C294.744 274.72 293.944 275.56 293.464 276.12C292.664 277.08 291.584 278.48 290.224 280.32C288.864 282.16 287.664 284.04 286.624 285.96C285.584 287.8 285.064 289.36 285.064 290.64C285.064 292.24 285.904 293.04 287.584 293.04ZM320.09 294.96C316.81 294.96 314.53 294.32 313.25 293.04C311.97 291.76 311.33 290.2 311.33 288.36C311.33 286.04 311.93 283.56 313.13 280.92C314.41 278.28 315.61 276.04 316.73 274.2C318.01 272.28 319.73 270.28 321.89 268.2C324.05 266.12 326.41 264.36 328.97 262.92C331.53 261.48 334.01 260.76 336.41 260.76C338.49 260.76 339.93 261.28 340.73 262.32C341.53 263.28 341.93 264.44 341.93 265.8C341.93 268.28 341.17 270.32 339.65 271.92C338.21 273.52 336.41 274.84 334.25 275.88C332.09 276.84 330.01 277.64 328.01 278.28C326.81 278.6 325.41 278.92 323.81 279.24C322.21 279.56 320.69 279.72 319.25 279.72C318.69 281.16 318.25 282.56 317.93 283.92C317.61 285.28 317.45 286.52 317.45 287.64C317.45 289 317.77 290.12 318.41 291C319.13 291.88 320.29 292.32 321.89 292.32C322.53 292.32 323.29 292.24 324.17 292.08C325.05 291.92 326.01 291.68 327.05 291.36C329.45 290.56 331.81 289.28 334.13 287.52C336.45 285.76 338.57 283.88 340.49 281.88C342.49 279.8 344.01 278.08 345.05 276.72C345.29 276.96 345.41 277.24 345.41 277.56C345.41 277.96 345.13 278.6 344.57 279.48C342.97 281.72 340.89 284.04 338.33 286.44C335.77 288.84 332.93 290.88 329.81 292.56C326.69 294.16 323.45 294.96 320.09 294.96ZM320.21 277.32C321.25 277.4 322.41 277.4 323.69 277.32C325.05 277.16 326.37 276.88 327.65 276.48C330.93 275.52 333.29 274 334.73 271.92C336.25 269.76 337.01 267.84 337.01 266.16C337.01 265.2 336.81 264.4 336.41 263.76C336.01 263.12 335.37 262.8 334.49 262.8C332.17 262.8 330.09 263.68 328.25 265.44C326.41 267.12 324.81 269.08 323.45 271.32C322.09 273.56 321.01 275.56 320.21 277.32ZM343.852 295.68C343.532 295.68 343.532 295.36 343.852 294.72C344.252 294 344.612 293.2 344.932 292.32C345.332 291.44 345.732 290.48 346.132 289.44C346.932 287.52 347.812 285.36 348.772 282.96C349.732 280.56 350.652 278.24 351.532 276C352.412 273.68 353.172 271.72 353.812 270.12C354.532 268.44 355.012 267.36 355.252 266.88C354.132 268.08 352.772 269.6 351.172 271.44C349.652 273.2 348.212 274.92 346.852 276.6C345.492 278.28 344.452 279.6 343.732 280.56C343.492 280.88 343.292 281.04 343.132 281.04C342.972 281.04 342.892 280.84 342.892 280.44C342.892 279.8 343.092 279.2 343.492 278.64C345.012 276.72 346.692 274.56 348.532 272.16C350.452 269.76 352.172 267.56 353.692 265.56C355.212 263.48 356.172 262.12 356.572 261.48C357.452 261.32 358.732 261.08 360.412 260.76C362.172 260.44 363.372 260 364.012 259.44C364.252 259.2 364.492 259.08 364.732 259.08C364.892 259.08 364.972 259.24 364.972 259.56C365.052 259.8 364.972 260.08 364.732 260.4C364.252 260.88 363.532 261.92 362.572 263.52C361.692 265.12 360.692 266.96 359.572 269.04C358.452 271.12 357.372 273.12 356.332 275.04C357.132 273.84 358.172 272.44 359.452 270.84C360.812 269.16 362.292 267.56 363.892 266.04C365.492 264.44 367.092 263.12 368.692 262.08C370.372 261.04 371.932 260.52 373.372 260.52C374.412 260.52 375.292 260.76 376.012 261.24C376.732 261.64 377.292 262.4 377.692 263.52C377.932 264.08 378.052 264.72 378.052 265.44C378.052 266.8 377.692 268.12 376.972 269.4C376.332 270.6 375.852 271.52 375.532 272.16C375.452 272.4 375.172 272.64 374.692 272.88C374.212 273.04 374.012 272.96 374.092 272.64C374.172 272.24 374.212 271.84 374.212 271.44C374.292 271.04 374.332 270.6 374.332 270.12C374.332 268.76 374.052 267.52 373.492 266.4C373.012 265.28 372.092 264.72 370.732 264.72C369.452 264.72 367.892 265.52 366.052 267.12C364.212 268.72 362.372 270.56 360.532 272.64C358.212 275.36 356.372 277.96 355.012 280.44C353.652 282.84 352.532 285.2 351.652 287.52C351.172 288.8 350.692 290.08 350.212 291.36C349.732 292.56 349.372 293.52 349.132 294.24C348.092 294.32 347.052 294.56 346.012 294.96C344.972 295.44 344.252 295.68 343.852 295.68ZM400.788 248.16C399.668 248.16 398.868 247.8 398.388 247.08C398.068 246.68 397.908 246.16 397.908 245.52C397.908 244.24 398.508 243.2 399.708 242.4C400.588 241.92 401.388 241.68 402.108 241.68C403.308 241.68 404.148 242.04 404.628 242.76C404.948 243.16 405.108 243.68 405.108 244.32C405.108 245.6 404.468 246.64 403.188 247.44C402.468 247.92 401.668 248.16 400.788 248.16ZM379.908 294.36C379.108 294.36 378.428 294.2 377.868 293.88C377.388 293.56 377.148 292.96 377.148 292.08C377.148 290.96 377.428 289.64 377.988 288.12C378.628 286.6 379.308 285.08 380.028 283.56C380.828 282.04 381.428 280.8 381.828 279.84C382.388 278.72 383.068 277.28 383.868 275.52C384.748 273.68 385.548 271.96 386.268 270.36C387.068 268.68 387.628 267.52 387.948 266.88C386.828 268.08 385.468 269.6 383.868 271.44C382.348 273.2 380.908 274.92 379.548 276.6C378.188 278.28 377.148 279.6 376.428 280.56C376.188 280.88 375.988 281.04 375.828 281.04C375.668 281.04 375.588 280.84 375.588 280.44C375.588 279.8 375.788 279.2 376.188 278.64C377.708 276.72 379.388 274.56 381.228 272.16C383.148 269.76 384.868 267.56 386.388 265.56C387.908 263.48 388.868 262.12 389.268 261.48C390.148 261.32 391.428 261.08 393.108 260.76C394.868 260.44 396.068 260 396.708 259.44C396.948 259.2 397.188 259.08 397.428 259.08C397.588 259.08 397.668 259.24 397.668 259.56C397.748 259.8 397.668 260.08 397.428 260.4C396.948 260.96 396.108 262.32 394.908 264.48C393.708 266.64 392.428 269.04 391.068 271.68C389.788 274.24 388.588 276.56 387.468 278.64C386.348 280.8 385.388 282.88 384.588 284.88C383.788 286.88 383.388 288.32 383.388 289.2C383.388 290.32 383.948 290.88 385.068 290.88C386.108 290.88 387.428 290.24 389.028 288.96C390.708 287.68 392.388 286.16 394.068 284.4C395.748 282.56 397.228 280.88 398.508 279.36C398.908 278.88 399.388 278.32 399.948 277.68C400.588 276.96 400.988 276.52 401.148 276.36C401.308 276.52 401.388 276.8 401.388 277.2C401.308 277.76 401.108 278.32 400.788 278.88C400.468 279.36 400.148 279.8 399.828 280.2C398.148 282.28 396.308 284.44 394.308 286.68C392.308 288.84 390.108 290.68 387.708 292.2C385.308 293.64 382.708 294.36 379.908 294.36ZM405.754 294.96C402.474 294.96 400.194 294.32 398.914 293.04C397.634 291.76 396.994 290.2 396.994 288.36C396.994 286.04 397.594 283.56 398.794 280.92C400.074 278.28 401.274 276.04 402.394 274.2C403.674 272.28 405.394 270.28 407.554 268.2C409.714 266.12 412.074 264.36 414.634 262.92C417.194 261.48 419.674 260.76 422.074 260.76C424.154 260.76 425.594 261.28 426.394 262.32C427.194 263.28 427.594 264.44 427.594 265.8C427.594 268.28 426.834 270.32 425.314 271.92C423.874 273.52 422.074 274.84 419.914 275.88C417.754 276.84 415.674 277.64 413.674 278.28C412.474 278.6 411.074 278.92 409.474 279.24C407.874 279.56 406.354 279.72 404.914 279.72C404.354 281.16 403.914 282.56 403.594 283.92C403.274 285.28 403.114 286.52 403.114 287.64C403.114 289 403.434 290.12 404.074 291C404.794 291.88 405.954 292.32 407.554 292.32C408.194 292.32 408.954 292.24 409.834 292.08C410.714 291.92 411.674 291.68 412.714 291.36C415.114 290.56 417.474 289.28 419.794 287.52C422.114 285.76 424.234 283.88 426.154 281.88C428.154 279.8 429.674 278.08 430.714 276.72C430.954 276.96 431.074 277.24 431.074 277.56C431.074 277.96 430.794 278.6 430.234 279.48C428.634 281.72 426.554 284.04 423.994 286.44C421.434 288.84 418.594 290.88 415.474 292.56C412.354 294.16 409.114 294.96 405.754 294.96ZM405.874 277.32C406.914 277.4 408.074 277.4 409.354 277.32C410.714 277.16 412.034 276.88 413.314 276.48C416.594 275.52 418.954 274 420.394 271.92C421.914 269.76 422.674 267.84 422.674 266.16C422.674 265.2 422.474 264.4 422.074 263.76C421.674 263.12 421.034 262.8 420.154 262.8C417.834 262.8 415.754 263.68 413.914 265.44C412.074 267.12 410.474 269.08 409.114 271.32C407.754 273.56 406.674 275.56 405.874 277.32ZM429.516 295.8C429.196 295.8 429.196 295.44 429.516 294.72C429.916 294 430.276 293.2 430.596 292.32C430.996 291.44 431.396 290.48 431.796 289.44C432.596 287.52 433.476 285.36 434.436 282.96C435.396 280.56 436.316 278.24 437.196 276C438.076 273.68 438.836 271.72 439.476 270.12C440.196 268.44 440.676 267.36 440.916 266.88C439.796 268.08 438.436 269.6 436.836 271.44C435.316 273.2 433.876 274.92 432.516 276.6C431.156 278.28 430.116 279.6 429.396 280.56C429.156 280.88 428.956 281.04 428.796 281.04C428.636 281.04 428.556 280.84 428.556 280.44C428.556 279.8 428.756 279.2 429.156 278.64C430.676 276.72 432.356 274.56 434.196 272.16C436.116 269.76 437.836 267.56 439.356 265.56C440.876 263.48 441.836 262.12 442.236 261.48C443.116 261.32 444.396 261.08 446.076 260.76C447.836 260.44 449.036 260 449.676 259.44C449.916 259.2 450.156 259.08 450.396 259.08C450.556 259.08 450.636 259.24 450.636 259.56C450.716 259.8 450.636 260.08 450.396 260.4C449.916 260.96 449.076 262.28 447.876 264.36C446.756 266.36 445.516 268.6 444.156 271.08C442.876 273.56 441.676 275.8 440.556 277.8C441.516 276.52 442.556 275.28 443.676 274.08C444.796 272.88 445.876 271.72 446.916 270.6C447.876 269.64 449.196 268.44 450.876 267C452.556 265.56 454.316 264.24 456.156 263.04C457.996 261.84 459.596 261.16 460.956 261C461.276 260.92 461.556 260.88 461.796 260.88C462.116 260.88 462.356 260.88 462.516 260.88C464.276 260.88 465.156 261.52 465.156 262.8C465.156 263.76 464.636 265.04 463.596 266.64C463.036 267.52 462.156 269 460.956 271.08C459.836 273.08 458.676 275.28 457.476 277.68C456.356 280 455.356 282.2 454.476 284.28C453.676 286.28 453.276 287.76 453.276 288.72C453.276 289.84 453.836 290.4 454.956 290.4C456.316 290.4 457.796 289.72 459.396 288.36C461.076 287 462.876 285.28 464.796 283.2C466.716 281.04 468.636 278.76 470.556 276.36C470.716 276.52 470.796 276.8 470.796 277.2C470.796 277.76 470.596 278.32 470.196 278.88C469.876 279.36 469.556 279.8 469.236 280.2C468.436 281.24 467.356 282.56 465.996 284.16C464.716 285.68 463.396 287.2 462.036 288.72C460.676 290.16 459.436 291.32 458.316 292.2C457.516 292.76 456.476 293.36 455.196 294C453.916 294.64 452.636 294.96 451.356 294.96C449.916 294.96 448.916 294.6 448.356 293.88C447.796 293.08 447.516 292.12 447.516 291C447.516 289.72 447.756 288.36 448.236 286.92C448.716 285.48 449.236 284.12 449.796 282.84C450.436 281.48 450.916 280.48 451.236 279.84C452.676 277.04 453.996 274.4 455.196 271.92C456.396 269.44 457.236 267.68 457.716 266.64C457.956 266.16 458.076 265.76 458.076 265.44C458.076 264.88 457.636 264.84 456.756 265.32C455.876 265.8 454.796 266.52 453.516 267.48C452.316 268.44 451.196 269.4 450.156 270.36C449.116 271.24 448.436 271.84 448.116 272.16C445.156 275.28 442.556 278.76 440.316 282.6C438.156 286.36 436.316 290.24 434.796 294.24C433.756 294.32 432.716 294.6 431.676 295.08C430.636 295.56 429.916 295.8 429.516 295.8ZM473.446 294.96C470.486 294.96 468.406 294.4 467.206 293.28C466.006 292.16 465.406 290.72 465.406 288.96C465.406 286.64 466.166 284.08 467.686 281.28C469.206 278.4 470.646 276 472.006 274.08C473.366 272.24 474.886 270.52 476.566 268.92C478.326 267.24 480.206 265.8 482.206 264.6C483.486 263.8 485.206 262.96 487.366 262.08C489.606 261.12 491.486 260.64 493.006 260.64C494.846 260.64 496.126 261.08 496.846 261.96C497.566 262.76 497.926 263.76 497.926 264.96C497.926 265.92 497.766 266.92 497.446 267.96C497.126 268.92 496.766 269.84 496.366 270.72C496.126 271.2 495.766 271.56 495.286 271.8C494.806 271.96 494.566 271.88 494.566 271.56C494.566 271.16 494.606 270.8 494.686 270.48C494.766 270.16 494.806 269.8 494.806 269.4C494.806 267.88 494.446 266.4 493.726 264.96C493.086 263.44 492.086 262.68 490.726 262.68C489.286 262.68 487.726 263.2 486.046 264.24C484.366 265.2 483.206 266.04 482.566 266.76C480.486 268.92 478.446 271.6 476.446 274.8C474.526 278 473.126 281.04 472.246 283.92C471.686 285.6 471.406 287.04 471.406 288.24C471.406 289.6 471.766 290.56 472.486 291.12C473.206 291.68 474.086 291.96 475.126 291.96C475.926 291.96 476.766 291.84 477.646 291.6C478.606 291.36 479.606 291.08 480.646 290.76C483.046 289.96 485.446 288.72 487.846 287.04C490.326 285.28 492.566 283.44 494.566 281.52C496.566 279.52 498.086 277.8 499.126 276.36C499.286 276.52 499.366 276.76 499.366 277.08C499.366 277.48 499.206 277.96 498.886 278.52C498.566 279 498.326 279.4 498.166 279.72C496.486 281.96 494.286 284.28 491.566 286.68C488.846 289 485.886 290.96 482.686 292.56C479.566 294.16 476.486 294.96 473.446 294.96ZM503.839 294.96C500.559 294.96 498.279 294.32 496.999 293.04C495.719 291.76 495.079 290.2 495.079 288.36C495.079 286.04 495.679 283.56 496.879 280.92C498.159 278.28 499.359 276.04 500.479 274.2C501.759 272.28 503.479 270.28 505.639 268.2C507.799 266.12 510.159 264.36 512.719 262.92C515.279 261.48 517.759 260.76 520.159 260.76C522.239 260.76 523.679 261.28 524.479 262.32C525.279 263.28 525.679 264.44 525.679 265.8C525.679 268.28 524.919 270.32 523.399 271.92C521.959 273.52 520.159 274.84 517.999 275.88C515.839 276.84 513.759 277.64 511.759 278.28C510.559 278.6 509.159 278.92 507.559 279.24C505.959 279.56 504.439 279.72 502.999 279.72C502.439 281.16 501.999 282.56 501.679 283.92C501.359 285.28 501.199 286.52 501.199 287.64C501.199 289 501.519 290.12 502.159 291C502.879 291.88 504.039 292.32 505.639 292.32C506.279 292.32 507.039 292.24 507.919 292.08C508.799 291.92 509.759 291.68 510.799 291.36C513.199 290.56 515.559 289.28 517.879 287.52C520.199 285.76 522.319 283.88 524.239 281.88C526.239 279.8 527.759 278.08 528.799 276.72C529.039 276.96 529.159 277.24 529.159 277.56C529.159 277.96 528.879 278.6 528.319 279.48C526.719 281.72 524.639 284.04 522.079 286.44C519.519 288.84 516.679 290.88 513.559 292.56C510.439 294.16 507.199 294.96 503.839 294.96ZM503.959 277.32C504.999 277.4 506.159 277.4 507.439 277.32C508.799 277.16 510.119 276.88 511.399 276.48C514.679 275.52 517.039 274 518.479 271.92C519.999 269.76 520.759 267.84 520.759 266.16C520.759 265.2 520.559 264.4 520.159 263.76C519.759 263.12 519.119 262.8 518.239 262.8C515.919 262.8 513.839 263.68 511.999 265.44C510.159 267.12 508.559 269.08 507.199 271.32C505.839 273.56 504.759 275.56 503.959 277.32ZM534.082 295.92C532.642 295.92 531.122 295.72 529.522 295.32C527.922 294.92 526.482 294.28 525.202 293.4C524.002 292.44 523.202 291.16 522.802 289.56C522.722 289.32 522.682 288.96 522.682 288.48C522.682 287.36 522.922 286.12 523.402 284.76C523.962 283.4 524.642 282.44 525.442 281.88C525.762 281.72 526.002 281.72 526.162 281.88C526.402 282.04 526.442 282.2 526.282 282.36C526.202 282.6 526.082 282.92 525.922 283.32C525.762 283.64 525.642 284 525.562 284.4C525.322 286.48 525.762 288.32 526.882 289.92C527.362 290.56 527.922 291.16 528.562 291.72C529.282 292.28 529.962 292.76 530.602 293.16C531.162 293.48 531.842 293.72 532.642 293.88C533.442 293.96 534.242 294 535.042 294C536.322 294 537.562 293.84 538.762 293.52C539.962 293.2 540.842 292.68 541.402 291.96C542.442 290.68 542.962 289.24 542.962 287.64C542.962 286.44 542.642 285.16 542.002 283.8C541.362 282.44 540.362 281 539.002 279.48C538.122 278.52 537.282 277.48 536.482 276.36C535.682 275.24 535.162 274.04 534.922 272.76C534.842 272.52 534.762 272.28 534.682 272.04C534.682 271.8 534.682 271.56 534.682 271.32C533.642 272.84 532.562 274.28 531.442 275.64C530.402 276.92 529.482 278.04 528.682 279C528.362 279.48 528.082 279.72 527.842 279.72C527.682 279.72 527.602 279.56 527.602 279.24C527.602 278.52 527.922 277.76 528.562 276.96C529.202 276.24 529.922 275.36 530.722 274.32C531.522 273.2 532.162 272.32 532.642 271.68C534.002 269.68 535.002 268.12 535.642 267C536.362 265.8 537.122 264.72 537.922 263.76C538.802 262.72 539.882 261.88 541.162 261.24C542.522 260.6 543.922 260.28 545.362 260.28C547.042 260.28 548.562 260.56 549.922 261.12C551.362 261.6 552.122 262.88 552.202 264.96C552.202 265.92 552.002 266.92 551.602 267.96C551.282 268.92 550.922 269.84 550.522 270.72C550.282 271.2 549.922 271.56 549.442 271.8C549.042 271.96 548.842 271.88 548.842 271.56C548.842 271.24 548.882 270.88 548.962 270.48C549.042 270.08 549.082 269.72 549.082 269.4C549.082 268.04 548.842 266.84 548.362 265.8C547.962 264.68 547.362 263.88 546.562 263.4C545.762 262.84 544.922 262.56 544.042 262.56C542.762 262.56 541.522 263.08 540.322 264.12C539.122 265.08 538.522 266.36 538.522 267.96C538.522 268.12 538.522 268.32 538.522 268.56C538.522 268.8 538.562 269 538.642 269.16C538.962 270.44 539.922 271.88 541.522 273.48C543.122 275.08 544.362 276.48 545.242 277.68C546.762 279.76 547.522 281.88 547.522 284.04C547.522 286.2 546.882 288.2 545.602 290.04C544.402 291.8 542.762 293.2 540.682 294.24C538.682 295.36 536.482 295.92 534.082 295.92Z" fill="#EFECE6"/>
<path d="M284.754 326.09C284.554 326.09 284.384 326.05 284.244 325.97C284.104 325.89 284.034 325.74 284.034 325.52C284.034 325.24 284.104 324.92 284.244 324.56C284.384 324.2 284.544 323.85 284.724 323.51C284.904 323.15 285.064 322.86 285.204 322.64C284.504 323.38 283.774 324.08 283.014 324.74C282.634 325.06 282.214 325.36 281.754 325.64C281.294 325.92 280.804 326.06 280.284 326.06C280.084 326.06 279.944 326 279.864 325.88C279.784 325.74 279.744 325.58 279.744 325.4C279.744 325.3 279.754 325.23 279.774 325.19C279.874 324.41 280.124 323.6 280.524 322.76C280.924 321.92 281.414 321.13 281.994 320.39C282.574 319.65 283.164 319.05 283.764 318.59C284.444 318.07 285.194 317.81 286.014 317.81H289.464C289.564 317.81 289.614 317.85 289.614 317.93C289.614 318.09 289.524 318.17 289.344 318.17C289.144 318.17 288.944 318.3 288.744 318.56C288.544 318.8 288.394 319 288.294 319.16C288.154 319.38 287.934 319.75 287.634 320.27C287.334 320.79 287.024 321.36 286.704 321.98C286.404 322.58 286.144 323.14 285.924 323.66C285.704 324.18 285.594 324.56 285.594 324.8C285.594 325.08 285.734 325.22 286.014 325.22C286.314 325.22 286.654 325.08 287.034 324.8C287.414 324.52 287.794 324.18 288.174 323.78C288.574 323.36 288.934 322.95 289.254 322.55C289.594 322.13 289.864 321.8 290.064 321.56C290.184 321.68 290.174 321.85 290.034 322.07C289.914 322.27 289.804 322.43 289.704 322.55C289.304 323.07 288.844 323.61 288.324 324.17C287.804 324.71 287.234 325.17 286.614 325.55C286.014 325.91 285.394 326.09 284.754 326.09ZM281.514 325.04C281.754 325.04 282.084 324.87 282.504 324.53C282.944 324.17 283.414 323.73 283.914 323.21C284.414 322.67 284.884 322.11 285.324 321.53C285.764 320.93 286.124 320.39 286.404 319.91C286.704 319.41 286.854 319.03 286.854 318.77C286.854 318.55 286.784 318.4 286.644 318.32C286.524 318.24 286.364 318.2 286.164 318.2C285.844 318.2 285.494 318.32 285.114 318.56C284.754 318.78 284.464 319 284.244 319.22C284.004 319.44 283.714 319.79 283.374 320.27C283.054 320.73 282.734 321.24 282.414 321.8C282.094 322.36 281.824 322.9 281.604 323.42C281.384 323.94 281.274 324.36 281.274 324.68C281.274 324.92 281.354 325.04 281.514 325.04ZM289.673 326.45C289.593 326.45 289.593 326.36 289.673 326.18C289.773 326 289.863 325.8 289.943 325.58C290.043 325.36 290.143 325.12 290.243 324.86C290.443 324.38 290.663 323.84 290.903 323.24C291.143 322.64 291.373 322.06 291.593 321.5C291.813 320.92 292.003 320.43 292.163 320.03C292.343 319.61 292.463 319.34 292.523 319.22C292.243 319.52 291.903 319.9 291.503 320.36C291.123 320.8 290.763 321.23 290.423 321.65C290.083 322.07 289.823 322.4 289.643 322.64C289.583 322.72 289.533 322.76 289.493 322.76C289.453 322.76 289.433 322.71 289.433 322.61C289.433 322.45 289.483 322.3 289.583 322.16C289.963 321.68 290.383 321.14 290.843 320.54C291.323 319.94 291.753 319.39 292.133 318.89C292.513 318.37 292.753 318.03 292.853 317.87C293.073 317.83 293.393 317.77 293.813 317.69C294.253 317.61 294.553 317.5 294.713 317.36C294.773 317.3 294.833 317.27 294.893 317.27C294.933 317.27 294.953 317.31 294.953 317.39C294.973 317.45 294.953 317.52 294.893 317.6C294.773 317.74 294.563 318.07 294.263 318.59C293.983 319.09 293.673 319.65 293.333 320.27C293.013 320.89 292.713 321.45 292.433 321.95C292.673 321.63 292.933 321.32 293.213 321.02C293.493 320.72 293.763 320.43 294.023 320.15C294.263 319.91 294.593 319.61 295.013 319.25C295.433 318.89 295.873 318.56 296.333 318.26C296.793 317.96 297.193 317.79 297.533 317.75C297.613 317.73 297.683 317.72 297.743 317.72C297.823 317.72 297.883 317.72 297.923 317.72C298.363 317.72 298.583 317.88 298.583 318.2C298.583 318.44 298.453 318.76 298.193 319.16C298.053 319.38 297.833 319.75 297.533 320.27C297.253 320.77 296.963 321.32 296.663 321.92C296.383 322.5 296.133 323.05 295.913 323.57C295.713 324.07 295.613 324.44 295.613 324.68C295.613 324.96 295.753 325.1 296.033 325.1C296.373 325.1 296.743 324.93 297.143 324.59C297.563 324.25 298.013 323.82 298.493 323.3C298.973 322.76 299.453 322.19 299.933 321.59C299.973 321.63 299.993 321.7 299.993 321.8C299.993 321.94 299.943 322.08 299.843 322.22C299.763 322.34 299.683 322.45 299.603 322.55C299.403 322.81 299.133 323.14 298.793 323.54C298.473 323.92 298.143 324.3 297.803 324.68C297.463 325.04 297.153 325.33 296.873 325.55C296.673 325.69 296.413 325.84 296.093 326C295.773 326.16 295.453 326.24 295.133 326.24C294.773 326.24 294.523 326.15 294.383 325.97C294.243 325.77 294.173 325.53 294.173 325.25C294.173 324.93 294.233 324.59 294.353 324.23C294.473 323.87 294.603 323.53 294.743 323.21C294.903 322.87 295.023 322.62 295.103 322.46C295.463 321.76 295.793 321.1 296.093 320.48C296.393 319.86 296.603 319.42 296.723 319.16C296.783 319.04 296.813 318.94 296.813 318.86C296.813 318.72 296.703 318.71 296.483 318.83C296.263 318.95 295.993 319.13 295.673 319.37C295.373 319.61 295.093 319.85 294.833 320.09C294.573 320.31 294.403 320.46 294.323 320.54C293.583 321.32 292.933 322.19 292.373 323.15C291.833 324.09 291.373 325.06 290.993 326.06C290.733 326.08 290.473 326.15 290.213 326.27C289.953 326.39 289.773 326.45 289.673 326.45ZM303.475 326.09C303.275 326.09 303.105 326.05 302.965 325.97C302.825 325.89 302.755 325.74 302.755 325.52C302.755 325.24 302.825 324.92 302.965 324.56C303.105 324.2 303.265 323.85 303.445 323.51C303.625 323.15 303.785 322.86 303.925 322.64C303.225 323.38 302.495 324.08 301.735 324.74C301.355 325.06 300.935 325.36 300.475 325.64C300.015 325.92 299.525 326.06 299.005 326.06C298.805 326.06 298.665 326 298.585 325.88C298.505 325.74 298.465 325.58 298.465 325.4C298.465 325.3 298.475 325.23 298.495 325.19C298.595 324.41 298.845 323.6 299.245 322.76C299.645 321.92 300.135 321.13 300.715 320.39C301.295 319.65 301.885 319.05 302.485 318.59C302.945 318.25 303.385 318.04 303.805 317.96C304.225 317.86 304.685 317.81 305.185 317.81H306.175C306.495 317.27 306.825 316.67 307.165 316.01C307.525 315.33 307.875 314.66 308.215 314C308.575 313.34 308.905 312.76 309.205 312.26C310.025 310.86 310.925 309.74 311.905 308.9C312.905 308.06 314.015 307.64 315.235 307.64C315.495 307.64 315.735 307.72 315.955 307.88C316.175 308.02 316.275 308.24 316.255 308.54L316.195 309.62C316.195 309.64 316.175 309.67 316.135 309.71C316.095 309.73 316.065 309.74 316.045 309.74C316.025 309.74 315.995 309.72 315.955 309.68C315.895 309.32 315.715 309.05 315.415 308.87C315.115 308.67 314.745 308.57 314.305 308.57C314.165 308.57 314.005 308.58 313.825 308.6C313.665 308.62 313.505 308.66 313.345 308.72C312.785 308.92 312.255 309.33 311.755 309.95C311.255 310.55 310.715 311.35 310.135 312.35C309.935 312.73 309.675 313.23 309.355 313.85C309.035 314.45 308.695 315.1 308.335 315.8C307.995 316.5 307.665 317.18 307.345 317.84C307.045 318.5 306.785 319.06 306.565 319.52C306.465 319.76 306.295 320.13 306.055 320.63C305.815 321.11 305.555 321.64 305.275 322.22C305.015 322.78 304.785 323.3 304.585 323.78C304.405 324.26 304.315 324.6 304.315 324.8C304.315 325.08 304.435 325.22 304.675 325.22C304.915 325.22 305.235 325.08 305.635 324.8C306.035 324.5 306.445 324.14 306.865 323.72C307.305 323.28 307.695 322.86 308.035 322.46C308.395 322.06 308.645 321.76 308.785 321.56C308.845 321.62 308.875 321.69 308.875 321.77C308.875 321.91 308.815 322.05 308.695 322.19C308.595 322.33 308.505 322.45 308.425 322.55C308.065 323.03 307.615 323.55 307.075 324.11C306.555 324.65 305.985 325.12 305.365 325.52C304.745 325.9 304.115 326.09 303.475 326.09ZM300.235 325.04C300.475 325.04 300.805 324.87 301.225 324.53C301.665 324.17 302.135 323.73 302.635 323.21C303.135 322.67 303.605 322.11 304.045 321.53C304.485 320.93 304.845 320.39 305.125 319.91C305.425 319.41 305.575 319.03 305.575 318.77C305.575 318.55 305.505 318.4 305.365 318.32C305.245 318.24 305.085 318.2 304.885 318.2C304.565 318.2 304.215 318.32 303.835 318.56C303.475 318.78 303.185 319 302.965 319.22C302.725 319.44 302.435 319.79 302.095 320.27C301.775 320.73 301.455 321.24 301.135 321.8C300.815 322.36 300.545 322.9 300.325 323.42C300.105 323.94 299.995 324.36 299.995 324.68C299.995 324.92 300.075 325.04 300.235 325.04ZM314.482 326.09C314.282 326.09 314.112 326.05 313.972 325.97C313.832 325.89 313.762 325.74 313.762 325.52C313.762 325.24 313.832 324.91 313.972 324.53C314.132 324.15 314.302 323.77 314.482 323.39C314.662 323.01 314.812 322.7 314.932 322.46C315.032 322.28 315.162 322 315.322 321.62C315.502 321.22 315.682 320.81 315.862 320.39C316.062 319.95 316.222 319.58 316.342 319.28C316.482 318.98 316.552 318.83 316.552 318.83C316.372 319.03 316.132 319.31 315.832 319.67C315.552 320.03 315.242 320.41 314.902 320.81C314.582 321.19 314.282 321.55 314.002 321.89C313.742 322.23 313.552 322.48 313.432 322.64C313.372 322.72 313.322 322.76 313.282 322.76C313.242 322.76 313.222 322.71 313.222 322.61C313.222 322.45 313.272 322.3 313.372 322.16C313.612 321.86 313.902 321.5 314.242 321.08C314.582 320.64 314.922 320.2 315.262 319.76C315.622 319.32 315.932 318.93 316.192 318.59C316.032 318.59 315.822 318.6 315.562 318.62C315.322 318.64 315.102 318.67 314.902 318.71C314.702 318.73 314.592 318.74 314.572 318.74C314.472 318.74 314.482 318.66 314.602 318.5C314.722 318.34 314.882 318.18 315.082 318.02C315.282 317.86 315.432 317.78 315.532 317.78C315.552 317.78 315.712 317.79 316.012 317.81C316.312 317.81 316.532 317.81 316.672 317.81C317.072 317.27 317.462 316.65 317.842 315.95C318.242 315.25 318.632 314.48 319.012 313.64C319.172 313.62 319.442 313.51 319.822 313.31C320.222 313.09 320.532 312.87 320.752 312.65C320.852 312.55 320.932 312.5 320.992 312.5C321.112 312.5 321.112 312.58 320.992 312.74C320.852 312.9 320.612 313.24 320.272 313.76C319.932 314.26 319.552 314.87 319.132 315.59C318.712 316.29 318.312 317.03 317.932 317.81H320.362C320.582 317.81 320.692 317.84 320.692 317.9C320.692 317.98 320.542 318.06 320.242 318.14C319.902 318.24 319.542 318.3 319.162 318.32C318.802 318.34 318.462 318.38 318.142 318.44C317.842 318.5 317.622 318.63 317.482 318.83C317.362 318.97 317.192 319.27 316.972 319.73C316.752 320.19 316.512 320.72 316.252 321.32C316.012 321.9 315.802 322.49 315.622 323.09C315.442 323.67 315.332 324.16 315.292 324.56V324.68C315.292 324.84 315.342 324.97 315.442 325.07C315.542 325.17 315.642 325.22 315.742 325.22C316.002 325.22 316.332 325.06 316.732 324.74C317.152 324.42 317.582 324.04 318.022 323.6C318.462 323.14 318.842 322.72 319.162 322.34C319.302 322.18 319.422 322.03 319.522 321.89C319.642 321.75 319.712 321.66 319.732 321.62C319.772 321.7 319.792 321.76 319.792 321.8C319.792 321.92 319.752 322.05 319.672 322.19C319.612 322.33 319.542 322.45 319.462 322.55C319.082 323.05 318.622 323.58 318.082 324.14C317.542 324.68 316.962 325.14 316.342 325.52C315.742 325.9 315.122 326.09 314.482 326.09ZM320.909 326.09C320.709 326.09 320.539 326.05 320.399 325.97C320.259 325.89 320.189 325.74 320.189 325.52C320.189 325.24 320.259 324.91 320.399 324.53C320.559 324.15 320.729 323.77 320.909 323.39C321.089 323.01 321.239 322.7 321.359 322.46C321.599 322 321.829 321.54 322.049 321.08C322.269 320.62 322.459 320.23 322.619 319.91C322.779 319.61 322.859 319.41 322.859 319.31C322.859 319.15 322.739 319.15 322.499 319.31C322.279 319.47 322.069 319.63 321.869 319.79C321.429 320.21 320.969 320.71 320.489 321.29C320.009 321.85 319.639 322.3 319.379 322.64C319.319 322.72 319.269 322.76 319.229 322.76C319.189 322.76 319.169 322.71 319.169 322.61C319.169 322.45 319.219 322.3 319.319 322.16C319.599 321.76 319.929 321.32 320.309 320.84C320.689 320.36 321.079 319.9 321.479 319.46C321.859 319.06 322.249 318.67 322.649 318.29C323.049 317.91 323.559 317.72 324.179 317.72C324.599 317.72 324.809 317.88 324.809 318.2C324.809 318.48 324.689 318.8 324.449 319.16C324.309 319.38 324.089 319.75 323.789 320.27C323.489 320.79 323.179 321.36 322.859 321.98C322.559 322.58 322.299 323.14 322.079 323.66C321.859 324.18 321.749 324.56 321.749 324.8C321.749 325.08 321.889 325.22 322.169 325.22C322.389 325.22 322.659 325.11 322.979 324.89C323.299 324.65 323.629 324.37 323.969 324.05C324.589 323.45 325.149 322.8 325.649 322.1C326.169 321.38 326.609 320.69 326.969 320.03C327.349 319.37 327.649 318.83 327.869 318.41C327.909 318.33 327.949 318.24 327.989 318.14C328.049 318.02 328.139 317.95 328.259 317.93C328.379 317.91 328.639 317.9 329.039 317.9C329.439 317.9 329.809 317.82 330.149 317.66H330.209C330.269 317.66 330.299 317.69 330.299 317.75C330.299 317.91 330.169 318.03 329.909 318.11C329.669 318.19 329.389 318.43 329.069 318.83C328.769 319.23 328.469 319.72 328.169 320.3C327.869 320.86 327.599 321.44 327.359 322.04C327.119 322.64 326.939 323.19 326.819 323.69C326.699 324.19 326.669 324.56 326.729 324.8C326.809 325.08 326.949 325.22 327.149 325.22C327.409 325.22 327.769 325.06 328.229 324.74C328.709 324.42 329.199 324.04 329.699 323.6C330.199 323.14 330.609 322.72 330.929 322.34C331.069 322.18 331.199 322.02 331.319 321.86C331.439 321.7 331.519 321.6 331.559 321.56C331.579 321.58 331.599 321.62 331.619 321.68C331.639 321.72 331.649 321.76 331.649 321.8C331.629 321.94 331.579 322.08 331.499 322.22C331.419 322.34 331.329 322.45 331.229 322.55C330.849 323.05 330.389 323.58 329.849 324.14C329.329 324.68 328.759 325.14 328.139 325.52C327.539 325.9 326.919 326.09 326.279 326.09C326.079 326.09 325.849 326.04 325.589 325.94C325.349 325.84 325.229 325.62 325.229 325.28C325.229 325.02 325.299 324.67 325.439 324.23C325.579 323.77 325.729 323.32 325.889 322.88C326.069 322.42 326.219 322.08 326.339 321.86C326.079 322.24 325.759 322.67 325.379 323.15C325.019 323.61 324.649 324.02 324.269 324.38C323.769 324.86 323.229 325.27 322.649 325.61C322.089 325.93 321.509 326.09 320.909 326.09ZM331.186 326.42C331.106 326.42 331.106 326.34 331.186 326.18C331.286 326 331.376 325.8 331.456 325.58C331.556 325.36 331.656 325.12 331.756 324.86C331.956 324.38 332.176 323.84 332.416 323.24C332.656 322.64 332.886 322.06 333.106 321.5C333.326 320.92 333.516 320.43 333.676 320.03C333.856 319.61 333.976 319.34 334.036 319.22C333.756 319.52 333.416 319.9 333.016 320.36C332.636 320.8 332.276 321.23 331.936 321.65C331.596 322.07 331.336 322.4 331.156 322.64C331.096 322.72 331.046 322.76 331.006 322.76C330.966 322.76 330.946 322.71 330.946 322.61C330.946 322.45 330.996 322.3 331.096 322.16C331.476 321.68 331.896 321.14 332.356 320.54C332.836 319.94 333.266 319.39 333.646 318.89C334.026 318.37 334.266 318.03 334.366 317.87C334.586 317.83 334.906 317.77 335.326 317.69C335.766 317.61 336.066 317.5 336.226 317.36C336.286 317.3 336.346 317.27 336.406 317.27C336.446 317.27 336.466 317.31 336.466 317.39C336.486 317.45 336.466 317.52 336.406 317.6C336.286 317.72 336.106 317.98 335.866 318.38C335.646 318.78 335.396 319.24 335.116 319.76C334.836 320.28 334.566 320.78 334.306 321.26C334.506 320.96 334.766 320.61 335.086 320.21C335.426 319.79 335.796 319.39 336.196 319.01C336.596 318.61 336.996 318.28 337.396 318.02C337.816 317.76 338.206 317.63 338.566 317.63C338.826 317.63 339.046 317.69 339.226 317.81C339.406 317.91 339.546 318.1 339.646 318.38C339.706 318.52 339.736 318.68 339.736 318.86C339.736 319.2 339.646 319.53 339.466 319.85C339.306 320.15 339.186 320.38 339.106 320.54C339.086 320.6 339.016 320.66 338.896 320.72C338.776 320.76 338.726 320.74 338.746 320.66C338.766 320.56 338.776 320.46 338.776 320.36C338.796 320.26 338.806 320.15 338.806 320.03C338.806 319.69 338.736 319.38 338.596 319.1C338.476 318.82 338.246 318.68 337.906 318.68C337.586 318.68 337.196 318.88 336.736 319.28C336.276 319.68 335.816 320.14 335.356 320.66C334.776 321.34 334.316 321.99 333.976 322.61C333.636 323.21 333.356 323.8 333.136 324.38C333.016 324.7 332.896 325.02 332.776 325.34C332.656 325.64 332.566 325.88 332.506 326.06C332.246 326.08 331.986 326.14 331.726 326.24C331.466 326.36 331.286 326.42 331.186 326.42ZM339.36 326.45C339.28 326.45 339.28 326.36 339.36 326.18C339.46 326 339.55 325.8 339.63 325.58C339.73 325.36 339.83 325.12 339.93 324.86C340.13 324.38 340.35 323.84 340.59 323.24C340.83 322.64 341.06 322.06 341.28 321.5C341.5 320.92 341.69 320.43 341.85 320.03C342.03 319.61 342.15 319.34 342.21 319.22C341.93 319.52 341.59 319.9 341.19 320.36C340.81 320.8 340.45 321.23 340.11 321.65C339.77 322.07 339.51 322.4 339.33 322.64C339.27 322.72 339.22 322.76 339.18 322.76C339.14 322.76 339.12 322.71 339.12 322.61C339.12 322.45 339.17 322.3 339.27 322.16C339.65 321.68 340.07 321.14 340.53 320.54C341.01 319.94 341.44 319.39 341.82 318.89C342.2 318.37 342.44 318.03 342.54 317.87C342.76 317.83 343.08 317.77 343.5 317.69C343.94 317.61 344.24 317.5 344.4 317.36C344.46 317.3 344.52 317.27 344.58 317.27C344.62 317.27 344.64 317.31 344.64 317.39C344.66 317.45 344.64 317.52 344.58 317.6C344.46 317.74 344.25 318.07 343.95 318.59C343.67 319.09 343.36 319.65 343.02 320.27C342.7 320.89 342.4 321.45 342.12 321.95C342.36 321.63 342.62 321.32 342.9 321.02C343.18 320.72 343.45 320.43 343.71 320.15C343.95 319.91 344.28 319.61 344.7 319.25C345.12 318.89 345.56 318.56 346.02 318.26C346.48 317.96 346.88 317.79 347.22 317.75C347.3 317.73 347.37 317.72 347.43 317.72C347.51 317.72 347.57 317.72 347.61 317.72C348.05 317.72 348.27 317.88 348.27 318.2C348.27 318.44 348.14 318.76 347.88 319.16C347.74 319.38 347.52 319.75 347.22 320.27C346.94 320.77 346.65 321.32 346.35 321.92C346.07 322.5 345.82 323.05 345.6 323.57C345.4 324.07 345.3 324.44 345.3 324.68C345.3 324.96 345.44 325.1 345.72 325.1C346.06 325.1 346.43 324.93 346.83 324.59C347.25 324.25 347.7 323.82 348.18 323.3C348.66 322.76 349.14 322.19 349.62 321.59C349.66 321.63 349.68 321.7 349.68 321.8C349.68 321.94 349.63 322.08 349.53 322.22C349.45 322.34 349.37 322.45 349.29 322.55C349.09 322.81 348.82 323.14 348.48 323.54C348.16 323.92 347.83 324.3 347.49 324.68C347.15 325.04 346.84 325.33 346.56 325.55C346.36 325.69 346.1 325.84 345.78 326C345.46 326.16 345.14 326.24 344.82 326.24C344.46 326.24 344.21 326.15 344.07 325.97C343.93 325.77 343.86 325.53 343.86 325.25C343.86 324.93 343.92 324.59 344.04 324.23C344.16 323.87 344.29 323.53 344.43 323.21C344.59 322.87 344.71 322.62 344.79 322.46C345.15 321.76 345.48 321.1 345.78 320.48C346.08 319.86 346.29 319.42 346.41 319.16C346.47 319.04 346.5 318.94 346.5 318.86C346.5 318.72 346.39 318.71 346.17 318.83C345.95 318.95 345.68 319.13 345.36 319.37C345.06 319.61 344.78 319.85 344.52 320.09C344.26 320.31 344.09 320.46 344.01 320.54C343.27 321.32 342.62 322.19 342.06 323.15C341.52 324.09 341.06 325.06 340.68 326.06C340.42 326.08 340.16 326.15 339.9 326.27C339.64 326.39 339.46 326.45 339.36 326.45ZM355.323 314.54C355.043 314.54 354.843 314.45 354.723 314.27C354.643 314.17 354.603 314.04 354.603 313.88C354.603 313.56 354.753 313.3 355.053 313.1C355.273 312.98 355.473 312.92 355.653 312.92C355.953 312.92 356.163 313.01 356.283 313.19C356.363 313.29 356.403 313.42 356.403 313.58C356.403 313.9 356.243 314.16 355.923 314.36C355.743 314.48 355.543 314.54 355.323 314.54ZM350.103 326.09C349.903 326.09 349.733 326.05 349.593 325.97C349.473 325.89 349.413 325.74 349.413 325.52C349.413 325.24 349.483 324.91 349.623 324.53C349.783 324.15 349.953 323.77 350.133 323.39C350.333 323.01 350.483 322.7 350.583 322.46C350.723 322.18 350.893 321.82 351.093 321.38C351.313 320.92 351.513 320.49 351.693 320.09C351.893 319.67 352.033 319.38 352.113 319.22C351.833 319.52 351.493 319.9 351.093 320.36C350.713 320.8 350.353 321.23 350.013 321.65C349.673 322.07 349.413 322.4 349.233 322.64C349.173 322.72 349.123 322.76 349.083 322.76C349.043 322.76 349.023 322.71 349.023 322.61C349.023 322.45 349.073 322.3 349.173 322.16C349.553 321.68 349.973 321.14 350.433 320.54C350.913 319.94 351.343 319.39 351.723 318.89C352.103 318.37 352.343 318.03 352.443 317.87C352.663 317.83 352.983 317.77 353.403 317.69C353.843 317.61 354.143 317.5 354.303 317.36C354.363 317.3 354.423 317.27 354.483 317.27C354.523 317.27 354.543 317.31 354.543 317.39C354.563 317.45 354.543 317.52 354.483 317.6C354.363 317.74 354.153 318.08 353.853 318.62C353.553 319.16 353.233 319.76 352.893 320.42C352.573 321.06 352.273 321.64 351.993 322.16C351.713 322.7 351.473 323.22 351.273 323.72C351.073 324.22 350.973 324.58 350.973 324.8C350.973 325.08 351.113 325.22 351.393 325.22C351.653 325.22 351.983 325.06 352.383 324.74C352.803 324.42 353.223 324.04 353.643 323.6C354.063 323.14 354.433 322.72 354.753 322.34C354.853 322.22 354.973 322.08 355.113 321.92C355.273 321.74 355.373 321.63 355.413 321.59C355.453 321.63 355.473 321.7 355.473 321.8C355.453 321.94 355.403 322.08 355.323 322.22C355.243 322.34 355.163 322.45 355.083 322.55C354.663 323.07 354.203 323.61 353.703 324.17C353.203 324.71 352.653 325.17 352.053 325.55C351.453 325.91 350.803 326.09 350.103 326.09ZM355.034 326.45C354.954 326.45 354.954 326.36 355.034 326.18C355.134 326 355.224 325.8 355.304 325.58C355.404 325.36 355.504 325.12 355.604 324.86C355.804 324.38 356.024 323.84 356.264 323.24C356.504 322.64 356.734 322.06 356.954 321.5C357.174 320.92 357.364 320.43 357.524 320.03C357.704 319.61 357.824 319.34 357.884 319.22C357.604 319.52 357.264 319.9 356.864 320.36C356.484 320.8 356.124 321.23 355.784 321.65C355.444 322.07 355.184 322.4 355.004 322.64C354.944 322.72 354.894 322.76 354.854 322.76C354.814 322.76 354.794 322.71 354.794 322.61C354.794 322.45 354.844 322.3 354.944 322.16C355.324 321.68 355.744 321.14 356.204 320.54C356.684 319.94 357.114 319.39 357.494 318.89C357.874 318.37 358.114 318.03 358.214 317.87C358.434 317.83 358.754 317.77 359.174 317.69C359.614 317.61 359.914 317.5 360.074 317.36C360.134 317.3 360.194 317.27 360.254 317.27C360.294 317.27 360.314 317.31 360.314 317.39C360.334 317.45 360.314 317.52 360.254 317.6C360.134 317.74 359.924 318.07 359.624 318.59C359.344 319.09 359.034 319.65 358.694 320.27C358.374 320.89 358.074 321.45 357.794 321.95C358.034 321.63 358.294 321.32 358.574 321.02C358.854 320.72 359.124 320.43 359.384 320.15C359.624 319.91 359.954 319.61 360.374 319.25C360.794 318.89 361.234 318.56 361.694 318.26C362.154 317.96 362.554 317.79 362.894 317.75C362.974 317.73 363.044 317.72 363.104 317.72C363.184 317.72 363.244 317.72 363.284 317.72C363.724 317.72 363.944 317.88 363.944 318.2C363.944 318.44 363.814 318.76 363.554 319.16C363.414 319.38 363.194 319.75 362.894 320.27C362.614 320.77 362.324 321.32 362.024 321.92C361.744 322.5 361.494 323.05 361.274 323.57C361.074 324.07 360.974 324.44 360.974 324.68C360.974 324.96 361.114 325.1 361.394 325.1C361.734 325.1 362.104 324.93 362.504 324.59C362.924 324.25 363.374 323.82 363.854 323.3C364.334 322.76 364.814 322.19 365.294 321.59C365.334 321.63 365.354 321.7 365.354 321.8C365.354 321.94 365.304 322.08 365.204 322.22C365.124 322.34 365.044 322.45 364.964 322.55C364.764 322.81 364.494 323.14 364.154 323.54C363.834 323.92 363.504 324.3 363.164 324.68C362.824 325.04 362.514 325.33 362.234 325.55C362.034 325.69 361.774 325.84 361.454 326C361.134 326.16 360.814 326.24 360.494 326.24C360.134 326.24 359.884 326.15 359.744 325.97C359.604 325.77 359.534 325.53 359.534 325.25C359.534 324.93 359.594 324.59 359.714 324.23C359.834 323.87 359.964 323.53 360.104 323.21C360.264 322.87 360.384 322.62 360.464 322.46C360.824 321.76 361.154 321.1 361.454 320.48C361.754 319.86 361.964 319.42 362.084 319.16C362.144 319.04 362.174 318.94 362.174 318.86C362.174 318.72 362.064 318.71 361.844 318.83C361.624 318.95 361.354 319.13 361.034 319.37C360.734 319.61 360.454 319.85 360.194 320.09C359.934 320.31 359.764 320.46 359.684 320.54C358.944 321.32 358.294 322.19 357.734 323.15C357.194 324.09 356.734 325.06 356.354 326.06C356.094 326.08 355.834 326.15 355.574 326.27C355.314 326.39 355.134 326.45 355.034 326.45ZM359.386 336.5C358.626 336.5 357.896 336.32 357.196 335.96C356.476 335.62 355.946 335.09 355.606 334.37C355.466 334.11 355.376 333.83 355.336 333.53C355.296 333.25 355.276 332.97 355.276 332.69V332.39C355.276 332.23 355.296 332.08 355.336 331.94C355.376 331.8 355.486 331.73 355.666 331.73C355.706 331.73 355.726 331.75 355.726 331.79C355.726 331.91 355.716 332.03 355.696 332.15C355.676 332.27 355.666 332.4 355.666 332.54C355.666 333.46 355.966 334.16 356.566 334.64C357.146 335.12 357.876 335.36 358.756 335.36C359.116 335.36 359.486 335.32 359.866 335.24C360.246 335.16 360.596 335.05 360.916 334.91C362.196 334.37 363.306 333.59 364.246 332.57C365.206 331.55 366.036 330.4 366.736 329.12C367.456 327.84 368.086 326.53 368.626 325.19C369.186 323.83 369.706 322.55 370.186 321.35C369.766 322.03 369.306 322.64 368.806 323.18C368.306 323.7 367.746 324.22 367.126 324.74C366.746 325.06 366.326 325.36 365.866 325.64C365.426 325.92 364.946 326.06 364.426 326.06C364.226 326.06 364.086 326 364.006 325.88C363.926 325.74 363.886 325.58 363.886 325.4V325.19C363.986 324.41 364.236 323.6 364.636 322.76C365.056 321.92 365.556 321.13 366.136 320.39C366.716 319.65 367.306 319.05 367.906 318.59C368.586 318.07 369.336 317.81 370.156 317.81H373.606C373.706 317.81 373.756 317.85 373.756 317.93C373.756 318.09 373.666 318.17 373.486 318.17C373.266 318.17 373.056 318.26 372.856 318.44C372.656 318.62 372.506 318.79 372.406 318.95C372.206 319.27 371.946 319.76 371.626 320.42C371.306 321.08 370.956 321.84 370.576 322.7C370.196 323.54 369.816 324.4 369.436 325.28C369.056 326.14 368.706 326.95 368.386 327.71C367.906 328.85 367.356 329.96 366.736 331.04C366.136 332.14 365.416 333.12 364.576 333.98C363.756 334.86 362.776 335.55 361.636 336.05C360.956 336.35 360.206 336.5 359.386 336.5ZM365.656 325.04C365.896 325.04 366.226 324.87 366.646 324.53C367.066 324.17 367.526 323.73 368.026 323.21C368.526 322.67 368.996 322.11 369.436 321.53C369.876 320.93 370.236 320.39 370.516 319.91C370.816 319.41 370.966 319.03 370.966 318.77C370.966 318.55 370.896 318.4 370.756 318.32C370.636 318.24 370.476 318.2 370.276 318.2C369.956 318.2 369.616 318.32 369.256 318.56C368.896 318.78 368.606 319 368.386 319.22C368.146 319.44 367.856 319.79 367.516 320.27C367.196 320.73 366.866 321.24 366.526 321.8C366.206 322.36 365.936 322.9 365.716 323.42C365.496 323.94 365.386 324.36 365.386 324.68C365.386 324.92 365.476 325.04 365.656 325.04Z" fill="#EFECE6"/>
<path d="M322.703 27V19.8418H327.61V21.0527H324.148V22.7471H327.137V23.958H324.148V27H322.703ZM328.812 27V19.8418H331.854C332.618 19.8418 333.174 19.9069 333.519 20.0371C333.867 20.1641 334.145 20.3919 334.354 20.7207C334.562 21.0495 334.666 21.4255 334.666 21.8486C334.666 22.3857 334.508 22.8301 334.192 23.1816C333.877 23.5299 333.405 23.7497 332.776 23.8408C333.089 24.0231 333.346 24.2233 333.548 24.4414C333.753 24.6595 334.028 25.0469 334.373 25.6035L335.247 27H333.519L332.474 25.4424C332.103 24.8857 331.849 24.5358 331.712 24.3926C331.575 24.2461 331.43 24.1468 331.277 24.0947C331.124 24.0394 330.882 24.0117 330.55 24.0117H330.257V27H328.812ZM330.257 22.8691H331.326C332.02 22.8691 332.452 22.8398 332.625 22.7812C332.798 22.7227 332.933 22.6217 333.03 22.4785C333.128 22.3353 333.177 22.1562 333.177 21.9414C333.177 21.7005 333.112 21.5068 332.981 21.3604C332.854 21.2106 332.674 21.1162 332.439 21.0771C332.322 21.0609 331.971 21.0527 331.385 21.0527H330.257V22.8691ZM335.74 23.4648C335.74 22.7357 335.849 22.1237 336.067 21.6289C336.23 21.2643 336.451 20.9372 336.731 20.6475C337.015 20.3577 337.324 20.1429 337.659 20.0029C338.105 19.8141 338.619 19.7197 339.202 19.7197C340.257 19.7197 341.1 20.0469 341.731 20.7012C342.366 21.3555 342.684 22.2653 342.684 23.4307C342.684 24.5863 342.369 25.4912 341.741 26.1455C341.113 26.7965 340.273 27.1221 339.222 27.1221C338.157 27.1221 337.311 26.7982 336.683 26.1504C336.054 25.4993 335.74 24.6042 335.74 23.4648ZM337.229 23.416C337.229 24.2266 337.417 24.8418 337.791 25.2617C338.165 25.6784 338.641 25.8867 339.217 25.8867C339.793 25.8867 340.265 25.68 340.633 25.2666C341.004 24.8499 341.189 24.2266 341.189 23.3965C341.189 22.5762 341.009 21.9642 340.647 21.5605C340.289 21.1569 339.812 20.9551 339.217 20.9551C338.621 20.9551 338.141 21.1602 337.776 21.5703C337.412 21.9772 337.229 22.5924 337.229 23.416ZM343.831 27V19.8418H345.237L348.167 24.6221V19.8418H349.51V27H348.06L345.174 22.332V27H343.831ZM352.654 27V21.0527H350.53V19.8418H356.219V21.0527H354.1V27H352.654ZM357.156 27V19.8418H362.464V21.0527H358.602V22.6396H362.195V23.8457H358.602V25.7939H362.601V27H357.156ZM363.841 27V19.8418H365.247L368.177 24.6221V19.8418H369.52V27H368.069L365.184 22.332V27H363.841ZM371.048 19.8418H373.689C374.285 19.8418 374.739 19.8874 375.052 19.9785C375.472 20.1022 375.831 20.3219 376.131 20.6377C376.43 20.9535 376.658 21.3408 376.814 21.7998C376.971 22.2555 377.049 22.8187 377.049 23.4893C377.049 24.0785 376.976 24.5863 376.829 25.0127C376.65 25.5335 376.395 25.9551 376.062 26.2773C375.812 26.5215 375.473 26.7119 375.047 26.8486C374.728 26.9495 374.301 27 373.768 27H371.048V19.8418ZM372.493 21.0527V25.7939H373.572C373.976 25.7939 374.267 25.7712 374.446 25.7256C374.681 25.667 374.874 25.5677 375.027 25.4277C375.184 25.2878 375.311 25.0583 375.408 24.7393C375.506 24.417 375.555 23.9792 375.555 23.4258C375.555 22.8724 375.506 22.4476 375.408 22.1514C375.311 21.8551 375.174 21.624 374.998 21.458C374.822 21.292 374.599 21.1797 374.329 21.1211C374.127 21.0755 373.732 21.0527 373.143 21.0527H372.493ZM381.058 19.8418H383.699C384.295 19.8418 384.749 19.8874 385.062 19.9785C385.481 20.1022 385.841 20.3219 386.141 20.6377C386.44 20.9535 386.668 21.3408 386.824 21.7998C386.98 22.2555 387.059 22.8187 387.059 23.4893C387.059 24.0785 386.985 24.5863 386.839 25.0127C386.66 25.5335 386.404 25.9551 386.072 26.2773C385.822 26.5215 385.483 26.7119 385.057 26.8486C384.738 26.9495 384.311 27 383.777 27H381.058V19.8418ZM382.503 21.0527V25.7939H383.582C383.986 25.7939 384.277 25.7712 384.456 25.7256C384.69 25.667 384.884 25.5677 385.037 25.4277C385.193 25.2878 385.32 25.0583 385.418 24.7393C385.516 24.417 385.564 23.9792 385.564 23.4258C385.564 22.8724 385.516 22.4476 385.418 22.1514C385.32 21.8551 385.184 21.624 385.008 21.458C384.832 21.292 384.609 21.1797 384.339 21.1211C384.137 21.0755 383.742 21.0527 383.152 21.0527H382.503ZM388.289 27V19.8418H393.597V21.0527H389.734V22.6396H393.328V23.8457H389.734V25.7939H393.733V27H388.289ZM396.785 27L394.227 19.8418H395.794L397.605 25.1396L399.358 19.8418H400.892L398.328 27H396.785ZM401.629 27V19.8418H406.937V21.0527H403.074V22.6396H406.668V23.8457H403.074V25.7939H407.073V27H401.629ZM408.338 27V19.9004H409.783V25.7939H413.377V27H408.338ZM414.119 23.4648C414.119 22.7357 414.228 22.1237 414.446 21.6289C414.609 21.2643 414.83 20.9372 415.11 20.6475C415.394 20.3577 415.703 20.1429 416.038 20.0029C416.484 19.8141 416.998 19.7197 417.581 19.7197C418.636 19.7197 419.479 20.0469 420.11 20.7012C420.745 21.3555 421.062 22.2653 421.062 23.4307C421.062 24.5863 420.748 25.4912 420.12 26.1455C419.492 26.7965 418.652 27.1221 417.601 27.1221C416.536 27.1221 415.69 26.7982 415.062 26.1504C414.433 25.4993 414.119 24.6042 414.119 23.4648ZM415.608 23.416C415.608 24.2266 415.796 24.8418 416.17 25.2617C416.544 25.6784 417.02 25.8867 417.596 25.8867C418.172 25.8867 418.644 25.68 419.012 25.2666C419.383 24.8499 419.568 24.2266 419.568 23.3965C419.568 22.5762 419.388 21.9642 419.026 21.5605C418.668 21.1569 418.191 20.9551 417.596 20.9551C417 20.9551 416.52 21.1602 416.155 21.5703C415.791 21.9772 415.608 22.5924 415.608 23.416ZM422.195 27V19.8418H424.515C425.394 19.8418 425.966 19.8776 426.233 19.9492C426.644 20.0566 426.987 20.291 427.264 20.6523C427.54 21.0104 427.679 21.4743 427.679 22.0439C427.679 22.4834 427.599 22.8529 427.439 23.1523C427.28 23.4518 427.076 23.6878 426.829 23.8604C426.585 24.0296 426.336 24.1419 426.082 24.1973C425.737 24.2656 425.237 24.2998 424.583 24.2998H423.641V27H422.195ZM423.641 21.0527V23.084H424.432C425.001 23.084 425.382 23.0465 425.574 22.9717C425.766 22.8968 425.916 22.7796 426.023 22.6201C426.134 22.4606 426.189 22.2751 426.189 22.0635C426.189 21.8031 426.113 21.5882 425.96 21.4189C425.807 21.2497 425.613 21.1439 425.379 21.1016C425.206 21.069 424.86 21.0527 424.339 21.0527H423.641ZM428.865 27V19.8418H434.173V21.0527H430.311V22.6396H433.904V23.8457H430.311V25.7939H434.31V27H428.865ZM435.54 27V19.8418H438.582C439.347 19.8418 439.902 19.9069 440.247 20.0371C440.595 20.1641 440.874 20.3919 441.082 20.7207C441.29 21.0495 441.395 21.4255 441.395 21.8486C441.395 22.3857 441.237 22.8301 440.921 23.1816C440.605 23.5299 440.133 23.7497 439.505 23.8408C439.817 24.0231 440.075 24.2233 440.276 24.4414C440.481 24.6595 440.757 25.0469 441.102 25.6035L441.976 27H440.247L439.202 25.4424C438.831 24.8857 438.577 24.5358 438.44 24.3926C438.304 24.2461 438.159 24.1468 438.006 24.0947C437.853 24.0394 437.61 24.0117 437.278 24.0117H436.985V27H435.54ZM436.985 22.8691H438.055C438.748 22.8691 439.181 22.8398 439.354 22.7812C439.526 22.7227 439.661 22.6217 439.759 22.4785C439.856 22.3353 439.905 22.1562 439.905 21.9414C439.905 21.7005 439.84 21.5068 439.71 21.3604C439.583 21.2106 439.402 21.1162 439.168 21.0771C439.051 21.0609 438.699 21.0527 438.113 21.0527H436.985V22.8691Z" fill="#EFECE6"/>
</svg>
